<svg width="674" height="881" viewBox="0 0 674 881" fill="none" xmlns="http://www.w3.org/2000/svg">
<path d="M295.299 260.969L186.632 539.981L204.711 681.375L220.545 689.401L336.998 748.428L459.307 689.401L475.937 681.375L490.69 539.981L378.928 260.969L357.963 249.518L336.998 238.067L316.149 249.518L295.299 260.969Z" fill="black" fill-opacity="0.19"/>
<path d="M204.711 681.375L186.632 539.981L89.3639 624.526L204.711 681.375Z" fill="black" fill-opacity="0.19"/>
<path d="M490.69 539.981L475.937 681.375L590.947 624.526L490.69 539.981Z" fill="black" fill-opacity="0.19"/>
<path d="M204.711 681.375L89.3639 624.526V781.572C89.4771 783.631 89.4722 785.79 89.3639 788.07L220.545 689.401L204.711 681.375Z" fill="black" fill-opacity="0.19"/>
<path d="M590.947 624.526L475.937 681.375L459.307 689.401L603.099 772.28L590.947 624.526Z" fill="black" fill-opacity="0.19"/>
<path d="M336.998 748.428L307.886 757.819L336.998 880.243L368.408 757.819L336.998 748.428Z" fill="black" fill-opacity="0.19"/>
<path d="M336.998 880.243L307.886 757.819C281.794 758.548 270.644 764.492 253.935 778.301L255.585 782.694L336.998 880.243Z" fill="black" fill-opacity="0.19"/>
<path d="M368.408 757.819L336.998 880.243L420.859 779.29C408.168 764.296 395.219 760.844 368.408 757.819Z" fill="black" fill-opacity="0.19"/>
<path d="M252.745 779.29L211.967 819.953L198.347 855.352C242.292 872.095 289.67 880.299 336.998 880.243L255.585 782.694L252.745 779.29Z" fill="black" fill-opacity="0.19"/>
<path d="M420.859 779.29L336.998 880.243C384.538 880.186 432.027 871.796 475.937 855.352L459.307 819.953L420.859 779.29Z" fill="black" fill-opacity="0.19"/>
<path d="M220.545 689.401L89.3639 788.07C121.08 817.733 158.287 840.09 198.347 855.352L211.967 819.953L154.809 779.29L186.632 748.428L220.545 689.401Z" fill="black" fill-opacity="0.19"/>
<path d="M603.099 772.28L459.307 689.401L506.406 748.428L532.093 779.29L459.307 819.953L475.937 855.352C524.216 837.273 568.167 809.457 603.099 772.28Z" fill="black" fill-opacity="0.19"/>
<path d="M506.406 117.168L432.702 68.5323L357.963 249.518L378.928 260.969L490.69 539.981L590.947 624.526L669.625 640.746C676.529 601.561 674.792 556.573 666.68 497.097C626.426 354.213 573.281 276.278 506.406 117.168Z" fill="black" fill-opacity="0.19"/>
<path d="M28.5867 513.75L3.55171 547.585C-1.91667 593.643 -1.15671 626.557 6.43185 655.642L89.3639 624.526L186.632 539.981L295.299 260.969L316.149 249.518L244.79 68.5323C146.221 185.968 107.07 248.714 59.713 356.272C26.8863 438.862 15.0438 474.056 17.592 496.644L28.5867 513.75Z" fill="black" fill-opacity="0.19"/>
<path d="M432.702 68.5323L343.688 0.864258H336.998V238.067L357.963 249.518L432.702 68.5323Z" fill="black" fill-opacity="0.19"/>
<path d="M330.308 0.864258L244.79 68.5323L316.149 249.518L336.998 238.067V0.864258H330.308Z" fill="black" fill-opacity="0.19"/>
<path d="M603.099 772.28C640.453 726.734 661.308 687.95 669.625 640.746L590.947 624.526L603.099 772.28Z" fill="black" fill-opacity="0.19"/>
<path d="M532.093 779.29H476.476H420.859L459.307 819.953L532.093 779.29Z" fill="black" fill-opacity="0.19"/>
<path d="M420.859 779.29H476.476H532.093L506.406 748.428L420.859 779.29Z" fill="black" fill-opacity="0.19"/>
<path d="M420.859 779.29L506.406 748.428L459.307 689.401L420.859 779.29Z" fill="black" fill-opacity="0.19"/>
<path fill-rule="evenodd" clip-rule="evenodd" d="M48.672 738.446C27.7267 708.728 13.8322 684.006 6.43185 655.642L89.3639 624.526V781.572C88.3652 763.414 78.1739 753.151 48.672 738.446ZM89.3639 788.07C89.4722 785.79 89.4771 783.631 89.3639 781.572V788.07ZM220.545 689.401L336.998 748.428L307.886 757.819C281.794 758.548 270.644 764.492 253.935 778.301L255.585 782.694L252.745 779.29L211.967 819.953L154.809 779.29L186.632 748.428L220.545 689.401Z" fill="black" fill-opacity="0.19"/>
<path d="M336.998 748.428L368.408 757.819C395.219 760.844 408.168 764.296 420.859 779.29L459.307 689.401L336.998 748.428Z" fill="black" fill-opacity="0.19"/>
<path d="M300.556 275.526L198.532 537.48L215.506 670.229L230.372 677.765L339.705 733.183L454.536 677.765L470.149 670.229L484.001 537.48L379.072 275.526L359.388 264.775L339.705 254.024L320.131 264.775L300.556 275.526Z" fill="#3159C9"/>
<path d="M215.506 670.229L198.532 537.48L107.211 616.856L215.506 670.229Z" fill="#0233B6"/>
<path d="M484.001 537.48L470.149 670.229L578.128 616.856L484.001 537.48Z" fill="#779CFF"/>
<path d="M215.506 670.229L107.211 616.856V764.3C107.317 766.233 107.313 768.261 107.211 770.4L230.372 677.765L215.506 670.229Z" fill="#0233B6"/>
<path d="M578.128 616.856L470.149 670.229L454.536 677.765L589.537 755.577L578.128 616.856Z" fill="#96B3FF"/>
<path d="M339.705 733.183L312.373 742L339.705 856.938L369.194 742L339.705 733.183Z" fill="#0233B6"/>
<path d="M339.705 856.938L312.373 742C287.877 742.683 277.408 748.264 261.721 761.229L263.27 765.353L339.705 856.938Z" fill="#0233B6"/>
<path d="M369.194 742L339.705 856.938L418.439 762.158C406.524 748.08 394.366 744.84 369.194 742Z" fill="#2B57CB"/>
<path d="M260.603 762.158L222.318 800.335L209.531 833.57C250.789 849.288 295.271 856.991 339.705 856.938L263.27 765.353L260.603 762.158Z" fill="#002893"/>
<path d="M418.439 762.158L339.705 856.938C384.338 856.885 428.925 849.008 470.149 833.57L454.536 800.335L418.439 762.158Z" fill="#8DADFF"/>
<path d="M230.372 677.765L107.211 770.4C136.988 798.25 171.92 819.241 209.531 833.57L222.318 800.335L168.655 762.158L198.532 733.183L230.372 677.765Z" fill="#002893"/>
<path d="M589.537 755.577L454.536 677.765L498.756 733.183L522.872 762.158L454.536 800.335L470.149 833.57C515.477 816.595 556.741 790.48 589.537 755.577Z" fill="#B1C7FF"/>
<path d="M498.756 140.516L429.558 94.8542L359.388 264.775L379.072 275.526L484.001 537.48L578.128 616.856L651.996 632.084C658.478 595.295 656.847 553.057 649.231 497.217C611.438 363.069 561.542 289.899 498.756 140.516Z" fill="#799BF4"/>
<path d="M50.1495 512.852L26.6451 544.619C21.5111 587.861 22.2246 618.763 29.3492 646.07L107.211 616.856L198.532 537.48L300.556 275.526L320.131 264.775L253.135 94.8542C160.592 205.11 123.835 264.02 79.3728 365.002C48.5531 442.543 37.4346 475.585 39.827 496.792L50.1495 512.852Z" fill="#1144CD"/>
<path d="M429.558 94.8542L345.986 31.3232H339.705V254.024L359.388 264.775L429.558 94.8542Z" fill="#92ABF3"/>
<path d="M333.424 31.3232L253.135 94.8542L320.131 264.775L339.705 254.024V31.3232H333.424Z" fill="#3061E5"/>
<path d="M589.537 755.577C624.607 712.815 644.188 676.402 651.996 632.084L578.128 616.856L589.537 755.577Z" fill="#B1C7FF"/>
<path d="M522.872 762.158H470.656H418.439L454.536 800.335L522.872 762.158Z" fill="#8DACFF"/>
<path d="M418.439 762.158H470.656H522.872L498.756 733.183L418.439 762.158Z" fill="#8DACFF"/>
<path d="M418.439 762.158L498.756 733.183L454.536 677.765L418.439 762.158Z" fill="#779CFF"/>
<path fill-rule="evenodd" clip-rule="evenodd" d="M69.0069 723.811C49.3421 695.91 36.2971 672.699 29.3492 646.07L107.211 616.856V764.3C106.273 747.252 96.7051 737.617 69.0069 723.811ZM107.211 770.4C107.313 768.261 107.317 766.233 107.211 764.3V770.4ZM230.372 677.765L339.705 733.183L312.373 742C287.877 742.683 277.408 748.264 261.721 761.229L263.27 765.353L260.603 762.158L222.318 800.335L168.655 762.158L198.532 733.183L230.372 677.765Z" fill="#0F3AAE"/>
<path d="M339.705 733.183L369.194 742C394.366 744.84 406.524 748.08 418.439 762.158L454.536 677.765L339.705 733.183Z" fill="#1E4ECC"/>
</svg>
